HIERARCHY
ROOT Hips
{
 OFFSET 0.000000 0.000000 0.000000
 CHANNELS 6 Xposition Yposition Zposition Yrotation Xrotation Zrotation
 JOINT Chest
 {
  OFFSET 0.000000 14.634200 -0.016200
  CHANNELS 3 Yrotation Xrotation Zrotation
  JOINT Chest2
  {
   OFFSET 0.000000 8.932900 0.033000
   CHANNELS 3 Yrotation Xrotation Zrotation
   JOINT Chest3
   {
    OFFSET 0.000000 8.892300 0.000000
    CHANNELS 3 Yrotation Xrotation Zrotation
    JOINT Chest4
    {
     OFFSET 0.000000 8.883200 0.000000
     CHANNELS 3 Yrotation Xrotation Zrotation
     JOINT Neck
     {
      OFFSET 0.000000 13.173600 0.000000
      CHANNELS 3 Yrotation Xrotation Zrotation
      JOINT Head
      {
       OFFSET 0.000000 8.324600 0.069800
       CHANNELS 3 Yrotation Xrotation Zrotation
       End Site
       {
        OFFSET 0.000000 15.692400 0.036900
       }
      }
     }
     JOINT RightCollar
     {
      OFFSET -2.619200 8.772200 0.000000
      CHANNELS 3 Yrotation Xrotation Zrotation
      JOINT RightShoulder
      {
       OFFSET -12.922000 0.000000 0.000000
       CHANNELS 3 Yrotation Xrotation Zrotation
       JOINT RightElbow
       {
        OFFSET 0.000000 -27.880900 0.000000
        CHANNELS 3 Yrotation Xrotation Zrotation
        JOINT RightWrist
        {
         OFFSET 0.000000 -22.758700 0.008200
         CHANNELS 3 Yrotation Xrotation Zrotation
         End Site
         {
          OFFSET 0.000000 -16.965000 0.000000
         }
        }
       }
      }
     }
     JOINT LeftCollar
     {
      OFFSET 2.619200 8.772200 0.000000
      CHANNELS 3 Yrotation Xrotation Zrotation
      JOINT LeftShoulder
      {
       OFFSET 12.922000 0.000000 0.000000
       CHANNELS 3 Yrotation Xrotation Zrotation
       JOINT LeftElbow
       {
        OFFSET 0.000000 -27.880900 0.000000
        CHANNELS 3 Yrotation Xrotation Zrotation
        JOINT LeftWrist
        {
         OFFSET 0.000000 -22.758700 0.008200
         CHANNELS 3 Yrotation Xrotation Zrotation
         End Site
         {
          OFFSET 0.000000 -16.965000 0.000000
         }
        }
       }
      }
     }
    }
   }
  }
 }
 JOINT RightHip
 {
  OFFSET -12.026800 0.080100 0.008100
  CHANNELS 3 Yrotation Xrotation Zrotation
  JOINT RightKnee
  {
   OFFSET 0.000000 -42.600800 -0.000200
   CHANNELS 3 Yrotation Xrotation Zrotation
   JOINT RightAnkle
   {
    OFFSET 0.000000 -38.219300 0.054300
    CHANNELS 3 Yrotation Xrotation Zrotation
    JOINT RightToe
    {
     OFFSET 0.000000 -9.685800 15.804700
     CHANNELS 3 Yrotation Xrotation Zrotation
     End Site
     {
      OFFSET 0.000000 -1.422300 5.761700
     }
    }
   }
  }
 }
 JOINT LeftHip
 {
  OFFSET 12.026800 0.080100 0.008100
  CHANNELS 3 Yrotation Xrotation Zrotation
  JOINT LeftKnee
  {
   OFFSET 0.000000 -42.600800 -0.000200
   CHANNELS 3 Yrotation Xrotation Zrotation
   JOINT LeftAnkle
   {
    OFFSET 0.000000 -38.219300 0.054300
    CHANNELS 3 Yrotation Xrotation Zrotation
    JOINT LeftToe
    {
     OFFSET 0.000000 -9.685800 15.804700
     CHANNELS 3 Yrotation Xrotation Zrotation
     End Site
     {
      OFFSET 0.000000 -1.422300 5.761700
     }
    }
   }
  }
 }
}
MOTION
Frames: 13
Frame Time: 0.008333
0.000000 90.254400 0.000000 0.000000 -5.767877 0.000000 0.000000 11.653817 0.000000 0.000000 -5.885947 0.000000 0.000000 -0.000000 0.000000 0.000000 -0.000000 0.000000 0.000000 12.528835 0.000000 0.000000 0.711642 0.000000 0.000000 -0.000000 0.000000 0.000000 0.000000 -90.000000 0.000000 -2.309062 0.000000 0.000000 2.309062 0.000000 0.000000 -0.000000 0.000000 0.000000 -0.000000 90.000000 0.000000 -2.309062 0.000000 0.000000 2.309062 0.000000 0.000000 8.520406 0.000000 0.000000 1.905762 0.000000 -0.000000 -4.658285 0.000000 0.000000 -0.000000 0.000000 0.000000 8.520406 0.000000 0.000000 1.905762 0.000000 -0.000000 -4.658285 0.000000 0.000000 -0.000000 0.000000
-5.916760 152.108342 13.060512 171.893946 -18.701119 -0.804310 -0.427636 17.299208 0.775221 -0.041766 1.848019 0.144048 -0.067046 3.075341 0.239266 -0.205495 15.211593 1.172233 -1.249673 9.960689 0.073574 -1.339019 -15.171464 0.365327 7.405422 0.672707 -1.986166 18.381833 -26.602209 -15.384473 41.316583 -42.212955 -19.132355 6.866549 -0.894777 -40.093051 -10.825051 1.089399 -2.130184 -2.177092 -31.154424 9.238509 -7.585310 -48.319439 -4.289052 -5.256360 1.684248 11.442774 -5.948682 -52.690069 12.109281 -61.375750 82.614490 -69.192345 -5.931316 -15.780930 10.069585 0.258956 -0.409838 0.157311 22.900502 -44.747037 -23.810169 44.242992 73.403848 60.990510 6.351112 -13.768725 -7.100903 0.296497 0.496858 0.181232
-6.872510 144.832449 13.832164 171.842194 -18.724892 -0.981366 -0.315430 17.314480 0.977188 -0.041400 1.847234 0.144385 -0.061509 3.062924 0.239590 -0.210260 15.226964 1.174218 -1.249033 9.957302 0.073026 -1.342917 -15.163054 0.366141 7.399236 0.659813 -1.987749 18.379198 -26.598686 -15.366561 41.320807 -42.189220 -19.133417 6.868144 -0.923181 -40.146843 -10.826934 1.079251 -2.128592 -2.191643 -31.150228 9.240792 -7.576148 -48.294217 -4.274691 -5.241172 1.662418 11.439188 -6.159297 -52.671466 12.444039 -61.619789 82.616754 -69.434543 -5.845038 -15.938215 10.109524 0.150694 -0.272409 0.092279 22.756943 -44.788733 -23.534681 44.178994 73.397648 60.927699 6.460875 -13.572768 -7.059255 0.177024 0.321178 0.108609
-7.662353 138.840674 14.467944 171.823585 -18.744709 -1.125100 -0.245675 17.323819 1.134136 -0.041171 1.838852 0.145026 -0.065401 3.071640 0.241110 -0.198806 15.214300 1.180125 -1.255059 9.971838 0.068946 -1.346250 -15.159268 0.365561 7.386688 0.676800 -1.990330 18.376525 -26.598457 -15.359131 41.325034 -42.174483 -19.137873 6.880568 -0.946796 -40.198058 -10.842525 1.083848 -2.135385 -2.203089 -31.153641 9.248057 -7.572442 -48.262052 -4.259251 -5.220831 1.630177 11.458332 -6.342640 -52.653613 12.705400 -61.835024 82.617055 -69.645500 -5.791274 -16.070411 10.133182 0.080434 -0.157651 0.049261 22.624439 -44.818932 -23.318519 44.120782 73.395618 60.871442 6.521812 -13.420605 -7.020204 0.079976 0.182567 0.049047
-8.234575 134.513440 14.927421 171.825312 -18.760592 -1.227850 -0.216086 17.329352 1.240962 -0.040570 1.846921 0.144955 -0.066710 3.064682 0.241842 -0.199387 15.213241 1.180680 -1.249938 9.970836 0.066171 -1.343671 -15.149231 0.361686 7.391388 0.670792 -1.992696 18.371582 -26.602815 -15.342333 41.377057 -42.109895 -19.186677 6.858203 -0.983215 -40.216638 -10.844027 1.056066 -2.130956 -2.233235 -31.143602 9.263581 -7.543099 -48.218820 -4.252926 -5.212076 1.612342 11.453348 -6.479005 -52.639435 12.879230 -62.024624 82.617165 -69.832213 -5.750054 -16.168425 10.151817 0.031048 -0.076689 0.019020 22.519364 -44.836483 -23.169856 44.077844 73.390937 60.832821 6.555665 -13.313610 -7.002603 0.031461 0.085523 0.019289
-8.600547 131.780232 15.218674 171.834141 -18.768311 -1.278898 -0.210394 17.329752 1.292354 -0.040705 1.846714 0.145179 -0.068488 3.062382 0.239532 -0.200118 15.211271 1.180114 -1.247465 9.977932 0.063730 -1.342180 -15.144389 0.361771 7.402138 0.656980 -1.986223 18.371587 -26.597466 -15.332948 41.388046 -42.074539 -19.193064 6.884657 -0.995560 -40.242613 -10.842582 1.059114 -2.130279 -2.245171 -31.144469 9.270015 -7.533120 -48.201331 -4.247798 -5.203651 1.582347 11.477412 -6.561295 -52.635134 12.968960 -62.135705 82.621479 -69.944910 -5.739460 -16.209647 10.157206 0.014933 -0.044426 0.009149 22.464625 -44.845994 -23.100554 44.059825 73.391526 60.818070 6.569040 -13.266403 -7.002354 0.019834 0.040720 0.012158
-8.800529 130.277017 15.380618 171.837480 -18.772076 -1.313180 -0.209236 17.315290 1.323060 -0.039836 1.847567 0.145648 -0.066095 3.068853 0.239843 -0.199116 15.208673 1.179940 -1.246394 9.988319 0.061916 -1.338693 -15.138324 0.357943 7.402783 0.654550 -1.983098 18.374262 -26.601835 -15.323518 41.453257 -42.017548 -19.239114 6.877657 -1.019797 -40.262997 -10.844660 1.063723 -2.128100 -2.243961 -31.138948 9.268628 -7.534766 -48.191375 -4.240579 -5.179847 1.541155 11.509448 -6.610864 -52.633082 13.026647 -62.194338 82.623515 -70.002257 -5.726419 -16.245005 10.157407 0.003977 -0.017049 0.002437 22.427437 -44.855667 -23.053164 44.054956 73.391040 60.812987 6.575556 -13.232418 -6.998290 0.003847 0.011231 0.002358
-8.897309 129.561512 15.458223 171.834139 -18.777774 -1.322632 -0.203347 17.310809 1.334118 -0.040647 1.844554 0.144897 -0.065086 3.069710 0.240536 -0.199034 15.213720 1.179481 -1.246463 9.994587 0.061064 -1.336675 -15.132759 0.353513 7.401211 0.649162 -1.982967 18.382171 -26.621702 -15.305464 41.522406 -41.940415 -19.288416 6.839713 -1.043786 -40.270146 -10.844375 1.057811 -2.123032 -2.267883 -31.139259 9.276847 -7.519611 -48.161231 -4.233144 -5.149919 1.488375 11.554141 -6.622649 -52.628910 13.043859 -62.230148 82.622330 -70.033657 -5.721904 -16.255098 10.152820 0.001965 -0.010471 0.001204 22.415846 -44.854665 -23.033356 44.050666 73.388195 60.808345 6.573850 -13.221051 -6.999180 0.001107 0.004735 0.000678
-8.938123 129.269559 15.489616 171.837384 -18.788341 -1.323193 -0.205605 17.311029 1.334999 -0.040553 1.846421 0.144538 -0.065576 3.065793 0.240907 -0.199988 15.217773 1.178989 -1.245932 9.997161 0.058904 -1.335494 -15.121270 0.350282 7.400658 0.653392 -1.983115 18.393695 -26.631279 -15.296355 41.573629 -41.884968 -19.331711 6.816541 -1.065402 -40.284227 -10.848870 1.053764 -2.118962 -2.282989 -31.144486 9.283397 -7.525542 -48.117205 -4.190770 -5.103697 1.427572 11.593538 -6.624565 -52.619849 13.042377 -62.253411 82.622884 -70.055912 -5.726735 -16.259419 10.146332 -0.001600 -0.009738 -0.000981 22.409389 -44.846269 -23.025796 44.044584 73.389475 60.802549 6.568241 -13.211326 -6.998931 0.001049 0.000831 0.000643
-8.952352 129.168334 15.501934 171.839755 -18.794748 -1.324141 -0.207389 17.312411 1.335840 -0.040421 1.848721 0.144197 -0.066566 3.057301 0.241897 -0.199046 15.213863 1.178903 -1.247210 10.002787 0.056359 -1.333405 -15.104999 0.348269 7.407415 0.653665 -1.988359 18.396112 -26.631033 -15.275796 41.626982 -41.827242 -19.378981 6.819398 -1.094392 -40.329736 -10.849873 1.047382 -2.117001 -2.300711 -31.138616 9.291712 -7.508744 -48.095097 -4.185914 -5.038379 1.354744 11.744309 -6.618646 -52.614383 13.042881 -62.277817 82.615105 -70.079477 -5.728519 -16.257736 10.146137 -0.000885 -0.009082 -0.000542 22.406773 -44.840850 -23.023226 44.037152 73.390131 60.795369 6.573642 -13.204601 -6.998198 0.000301 0.000371 0.000184
-8.956625 129.139156 15.507079 171.842868 -18.799395 -1.324764 -0.210899 17.312137 1.335925 -0.041060 1.843032 0.144895 -0.066402 3.060367 0.241372 -0.202506 15.207699 1.179500 -1.245524 10.013307 0.052842 -1.330415 -15.095011 0.341464 7.421262 0.643369 -1.985209 18.397282 -26.615590 -15.264474 41.680985 -41.771399 -19.426148 6.826160 -1.125000 -40.374126 -10.846222 1.053367 -2.121113 -2.313739 -31.146158 9.296741 -7.505951 -48.074652 -4.171752 -4.992360 1.293859 11.866209 -6.618327 -52.610761 13.044834 -62.318546 82.609417 -70.120445 -5.728710 -16.256813 10.145610 -0.000417 -0.008829 -0.000255 22.403237 -44.839381 -23.022381 44.040084 73.390994 60.795994 6.584523 -13.198068 -6.998865 0.000352 -0.001149 0.000216
-8.957424 129.132619 15.509730 171.845212 -18.804697 -1.325690 -0.212949 17.308385 1.337356 -0.042921 1.833020 0.145438 -0.065134 3.077107 0.239736 -0.206129 15.200224 1.179346 -1.242858 10.022222 0.051259 -1.329746 -15.091832 0.340210 7.428829 0.643554 -1.983120 18.397306 -26.608788 -15.260777 41.735740 -41.723872 -19.466769 6.881514 -1.181924 -40.485304 -10.846846 1.054234 -2.122139 -2.342154 -31.164238 9.312479 -7.505066 -48.037301 -4.120512 -4.944902 1.233087 11.945518 -6.619675 -52.603211 13.043956 -62.306239 82.604247 -70.103862 -5.725985 -16.254919 10.140459 0.000221 -0.006587 0.000135 22.394716 -44.835596 -23.015790 44.039596 73.390737 60.791582 6.590975 -13.196575 -7.000571 0.000276 -0.000336 0.000169
-8.957783 129.132091 15.510904 171.846935 -18.813095 -1.323900 -0.219366 17.297783 1.336974 -0.042520 1.841941 0.144384 -0.063551 3.076475 0.237061 -0.209568 15.197960 1.177882 -1.240603 10.031858 0.050243 -1.327417 -15.085040 0.339716 7.436457 0.650847 -1.979042 18.405952 -26.615200 -15.247166 41.794504 -41.658745 -19.512800 6.906671 -1.231104 -40.604358 -10.851655 1.043905 -2.123796 -2.341529 -31.149078 9.315885 -7.531629 -48.030025 -4.071938 -4.894946 1.180547 12.039388 -6.617698 -52.593644 13.036905 -62.285920 82.606706 -70.082390 -5.724712 -16.252998 10.139966 -0.001405 -0.005983 -0.000861 22.386679 -44.826836 -23.009577 44.048961 73.391892 60.796906 6.592378 -13.200934 -7.002189 0.000257 0.000834 0.000157
